<svg version="1.1" xmlns="http://www.w3.org/2000/svg" xmlns:xlink="http://www.w3.org/1999/xlink">

    <symbol viewBox="0 0 30 30" id="icon-calendar">
        <path d="M18.125 22.5C17.25 22.5 16.5104 22.1979 15.9062 21.5938C15.3021 20.9896 15 20.25 15 19.375C15 18.5 15.3021 17.7604 15.9062 17.1562C16.5104 16.5521 17.25 16.25 18.125 16.25C19 16.25 19.7396 16.5521 20.3438 17.1562C20.9479 17.7604 21.25 18.5 21.25 19.375C21.25 20.25 20.9479 20.9896 20.3438 21.5938C19.7396 22.1979 19 22.5 18.125 22.5ZM6.25 27.5C5.5625 27.5 4.97396 27.2552 4.48438 26.7656C3.99479 26.276 3.75 25.6875 3.75 25V7.5C3.75 6.8125 3.99479 6.22396 4.48438 5.73438C4.97396 5.24479 5.5625 5 6.25 5H7.5V2.5H10V5H20V2.5H22.5V5H23.75C24.4375 5 25.026 5.24479 25.5156 5.73438C26.0052 6.22396 26.25 6.8125 26.25 7.5V25C26.25 25.6875 26.0052 26.276 25.5156 26.7656C25.026 27.2552 24.4375 27.5 23.75 27.5H6.25ZM6.25 25H23.75V12.5H6.25V25ZM6.25 10H23.75V7.5H6.25V10Z" />
    </symbol>

    <symbol viewBox="0 0 30 30" id="icon-location">
        <path d="M15 15C15.6875 15 16.276 14.7552 16.7656 14.2656C17.2552 13.776 17.5 13.1875 17.5 12.5C17.5 11.8125 17.2552 11.224 16.7656 10.7344C16.276 10.2448 15.6875 10 15 10C14.3125 10 13.724 10.2448 13.2344 10.7344C12.7448 11.224 12.5 11.8125 12.5 12.5C12.5 13.1875 12.7448 13.776 13.2344 14.2656C13.724 14.7552 14.3125 15 15 15ZM15 24.1875C17.5417 21.8542 19.4271 19.7344 20.6563 17.8281C21.8854 15.9219 22.5 14.2292 22.5 12.75C22.5 10.4792 21.776 8.61979 20.3281 7.17188C18.8802 5.72396 17.1042 5 15 5C12.8958 5 11.1198 5.72396 9.67188 7.17188C8.22396 8.61979 7.5 10.4792 7.5 12.75C7.5 14.2292 8.11458 15.9219 9.34375 17.8281C10.5729 19.7344 12.4583 21.8542 15 24.1875ZM15 27.5C11.6458 24.6458 9.14062 21.9948 7.48438 19.5469C5.82812 17.099 5 14.8333 5 12.75C5 9.625 6.00521 7.13542 8.01563 5.28125C10.026 3.42708 12.3542 2.5 15 2.5C17.6458 2.5 19.974 3.42708 21.9844 5.28125C23.9948 7.13542 25 9.625 25 12.75C25 14.8333 24.1719 17.099 22.5156 19.5469C20.8594 21.9948 18.3542 24.6458 15 27.5Z" />
    </symbol>

    <symbol viewBox="0 0 20 14" id="participation-show">
        <path d="M10 13.1667L0 3.16666L2.33333 0.833328L10 8.5L17.6667 0.833328L20 3.16666L10 13.1667Z" />
    </symbol>

    <symbol viewBox="0 0 12 9" id="participation-hide">
        <path d="M6 0.800073L12 6.80007L10.6 8.20007L6 3.60007L1.4 8.20007L1.22392e-07 6.80007L6 0.800073Z" />
    </symbol>

    <symbol viewBox="0 0 32 40" id="icon-doc">
        <path d="M2.2857 0H21.7063L32 11.215V37.5C32 38.8812 30.9761 40 29.7143 40H2.2857C1.02395 40 0 38.8812 0 37.5V2.49998C0 1.11877 1.02406 0 2.2857 0Z" fill="#E5F7F7" />
        <path d="M31.9669 11.2497H24C22.7383 11.2497 21.7144 10.1297 21.7144 8.74968V0.0246582L31.9669 11.2497Z" fill="#03ADB4" />
    </symbol>

    <symbol viewBox="0 0 38 38" id="social-yt">
        <path d="M22.0875 19L17.1 16.15V21.85L22.0875 19Z" />
        <path fill-rule="evenodd" clip-rule="evenodd" d="M0 19C0 8.50659 8.50659 0 19 0C29.4934 0 38 8.50659 38 19C38 29.4934 29.4934 38 19 38C8.50659 38 0 29.4934 0 19ZM26.3625 12.7063C27.1938 12.9438 27.7875 13.5375 28.025 14.3688C28.5 15.9125 28.5 19 28.5 19C28.5 19 28.5 22.0875 28.1438 23.6313C27.9063 24.4625 27.3125 25.0562 26.4812 25.2938C24.9375 25.65 19 25.65 19 25.65C19 25.65 12.9437 25.65 11.5187 25.2938C10.6875 25.0562 10.0938 24.4625 9.85625 23.6313C9.5 22.0875 9.5 19 9.5 19C9.5 19 9.5 15.9125 9.7375 14.3688C9.975 13.5375 10.5688 12.9438 11.4 12.7063C12.9438 12.35 18.8812 12.35 18.8812 12.35C18.8812 12.35 24.9375 12.35 26.3625 12.7063Z" />
    </symbol>

    <symbol viewBox="0 0 38 38" id="social-vk">
        <path d="M12.7047 15.2823C12.806 20.2223 15.276 23.1863 19.608 23.1863H19.8613V20.3616C21.451 20.52 22.6543 21.6853 23.1357 23.1863H25.384C25.1534 22.3334 24.7446 21.539 24.1846 20.8556C23.6245 20.1723 22.926 19.6153 22.135 19.2216C22.8438 18.79 23.456 18.2168 23.9333 17.5379C24.4106 16.8591 24.7427 16.089 24.909 15.276H22.8697C22.4263 16.8466 21.109 18.2716 19.8613 18.4046V15.2823H17.8157V20.7543C16.549 20.4376 14.953 18.905 14.8833 15.2823H12.7047Z" />
        <path fill-rule="evenodd" clip-rule="evenodd" d="M19 0C29.4934 0 38 8.50659 38 19C38 29.4934 29.4934 38 19 38C8.50659 38 0 29.4934 0 19C0 8.50659 8.50659 0 19 0ZM9.5 18.62C9.5 14.3197 9.5 12.1727 10.83 10.83C12.179 9.5 14.326 9.5 18.62 9.5H19.38C23.6803 9.5 25.8273 9.5 27.17 10.83C28.5 12.179 28.5 14.326 28.5 18.62V19.38C28.5 23.6803 28.5 25.8273 27.17 27.17C25.821 28.5 23.674 28.5 19.38 28.5H18.62C14.3197 28.5 12.1727 28.5 10.83 27.17C9.5 25.821 9.5 23.674 9.5 19.38V18.62Z" />
    </symbol>

    <symbol viewBox="0 0 24 24" id="window-close">
        <path d="M6.4 19L5 17.6L10.6 12L5 6.4L6.4 5L12 10.6L17.6 5L19 6.4L13.4 12L19 17.6L17.6 19L12 13.4L6.4 19Z" />
    </symbol>

</svg>