<svg width="60" height="60" viewBox="0 0 60 60" fill="none" xmlns="http://www.w3.org/2000/svg">
<mask id="mask0_395_888" style="mask-type:alpha" maskUnits="userSpaceOnUse" x="0" y="0" width="60" height="60">
<rect width="60" height="60" fill="#D9D9D9"/>
</mask>
<g mask="url(#mask0_395_888)">
<path d="M26.4039 39.7692L42.3942 23.7789L40.625 22.0096L26.4039 36.2308L19.2789 29.1057L17.5096 30.875L26.4039 39.7692ZM30.0084 52.5C26.897 52.5 23.9718 51.9096 21.2327 50.7288C18.4937 49.548 16.1111 47.9454 14.0849 45.9212C12.0588 43.8969 10.4548 41.5166 9.27287 38.7801C8.09096 36.0436 7.5 33.1197 7.5 30.0084C7.5 26.897 8.0904 23.9718 9.27119 21.2327C10.452 18.4937 12.0546 16.1111 14.0788 14.0849C16.1031 12.0588 18.4834 10.4548 21.2199 9.27288C23.9564 8.09096 26.8803 7.5 29.9916 7.5C33.103 7.5 36.0282 8.0904 38.7673 9.27119C41.5063 10.452 43.8889 12.0546 45.9151 14.0788C47.9412 16.1031 49.5452 18.4834 50.7271 21.2199C51.909 23.9564 52.5 26.8803 52.5 29.9916C52.5 33.103 51.9096 36.0282 50.7288 38.7673C49.548 41.5063 47.9454 43.8889 45.9212 45.9151C43.8969 47.9412 41.5166 49.5452 38.7801 50.7271C36.0436 51.909 33.1197 52.5 30.0084 52.5ZM30 50C35.5833 50 40.3125 48.0625 44.1875 44.1875C48.0625 40.3125 50 35.5833 50 30C50 24.4167 48.0625 19.6875 44.1875 15.8125C40.3125 11.9375 35.5833 10 30 10C24.4167 10 19.6875 11.9375 15.8125 15.8125C11.9375 19.6875 10 24.4167 10 30C10 35.5833 11.9375 40.3125 15.8125 44.1875C19.6875 48.0625 24.4167 50 30 50Z" fill="#03ADB4"/>
</g>
</svg>
